<mxfile host="app.diagrams.net" modified="2023-03-24T16:57:56.803Z" agent="Mozilla/5.0 (Macintosh; Intel Mac OS X 10_15_7) AppleWebKit/537.36 (KHTML, like Gecko) Chrome/111.0.0.0 Safari/537.36" etag="BGHoY5i5so5W8acDZaUq" version="21.1.0" type="device">
  <diagram name="Страница 1" id="YiCy962IKFPYeFPdPzdw">
    <mxGraphModel dx="561" dy="1550" grid="1" gridSize="10" guides="1" tooltips="1" connect="1" arrows="1" fold="1" page="1" pageScale="1" pageWidth="827" pageHeight="1169" math="0" shadow="0">
      <root>
        <mxCell id="0" />
        <mxCell id="1" parent="0" />
        <mxCell id="dsHAmgILbhfdjyYHhmKQ-1" value="Seller" style="shape=umlActor;verticalLabelPosition=bottom;verticalAlign=top;html=1;outlineConnect=0;" vertex="1" parent="1">
          <mxGeometry x="20" y="-240" width="30" height="60" as="geometry" />
        </mxCell>
        <mxCell id="dsHAmgILbhfdjyYHhmKQ-4" value="" style="endArrow=classic;html=1;rounded=0;exitX=0.5;exitY=0.5;exitDx=0;exitDy=0;exitPerimeter=0;entryX=0;entryY=0.5;entryDx=0;entryDy=0;" edge="1" parent="1" source="dsHAmgILbhfdjyYHhmKQ-1" target="dsHAmgILbhfdjyYHhmKQ-5">
          <mxGeometry width="50" height="50" relative="1" as="geometry">
            <mxPoint x="110" y="-170" as="sourcePoint" />
            <mxPoint x="280" y="-210" as="targetPoint" />
          </mxGeometry>
        </mxCell>
        <mxCell id="dsHAmgILbhfdjyYHhmKQ-5" value="NFT can be presented in marketplace-page from that moment" style="text;html=1;strokeColor=none;fillColor=none;align=center;verticalAlign=middle;whiteSpace=wrap;rounded=0;" vertex="1" parent="1">
          <mxGeometry x="300" y="-242.5" width="175" height="65" as="geometry" />
        </mxCell>
        <mxCell id="dsHAmgILbhfdjyYHhmKQ-6" value="Form to Sell R-E" style="swimlane;fontStyle=0;childLayout=stackLayout;horizontal=1;startSize=30;horizontalStack=0;resizeParent=1;resizeParentMax=0;resizeLast=0;collapsible=1;marginBottom=0;whiteSpace=wrap;html=1;" vertex="1" parent="1">
          <mxGeometry x="70" y="-200" width="120" height="150" as="geometry" />
        </mxCell>
        <mxCell id="dsHAmgILbhfdjyYHhmKQ-7" value="Price in $" style="text;strokeColor=none;fillColor=none;align=left;verticalAlign=middle;spacingLeft=4;spacingRight=4;overflow=hidden;points=[[0,0.5],[1,0.5]];portConstraint=eastwest;rotatable=0;whiteSpace=wrap;html=1;" vertex="1" parent="dsHAmgILbhfdjyYHhmKQ-6">
          <mxGeometry y="30" width="120" height="30" as="geometry" />
        </mxCell>
        <mxCell id="dsHAmgILbhfdjyYHhmKQ-8" value="Image" style="text;strokeColor=none;fillColor=none;align=left;verticalAlign=middle;spacingLeft=4;spacingRight=4;overflow=hidden;points=[[0,0.5],[1,0.5]];portConstraint=eastwest;rotatable=0;whiteSpace=wrap;html=1;" vertex="1" parent="dsHAmgILbhfdjyYHhmKQ-6">
          <mxGeometry y="60" width="120" height="30" as="geometry" />
        </mxCell>
        <mxCell id="dsHAmgILbhfdjyYHhmKQ-9" value="Contacts" style="text;strokeColor=none;fillColor=none;align=left;verticalAlign=middle;spacingLeft=4;spacingRight=4;overflow=hidden;points=[[0,0.5],[1,0.5]];portConstraint=eastwest;rotatable=0;whiteSpace=wrap;html=1;" vertex="1" parent="dsHAmgILbhfdjyYHhmKQ-6">
          <mxGeometry y="90" width="120" height="30" as="geometry" />
        </mxCell>
        <mxCell id="dsHAmgILbhfdjyYHhmKQ-10" value="Description of hata&amp;nbsp;" style="text;strokeColor=none;fillColor=none;align=left;verticalAlign=middle;spacingLeft=4;spacingRight=4;overflow=hidden;points=[[0,0.5],[1,0.5]];portConstraint=eastwest;rotatable=0;whiteSpace=wrap;html=1;" vertex="1" parent="dsHAmgILbhfdjyYHhmKQ-6">
          <mxGeometry y="120" width="120" height="30" as="geometry" />
        </mxCell>
        <mxCell id="dsHAmgILbhfdjyYHhmKQ-11" value="mint R-E NFT" style="text;html=1;strokeColor=none;fillColor=none;align=center;verticalAlign=middle;whiteSpace=wrap;rounded=0;" vertex="1" parent="1">
          <mxGeometry x="42.5" y="-240" width="175" height="30" as="geometry" />
        </mxCell>
        <mxCell id="dsHAmgILbhfdjyYHhmKQ-15" value="" style="shape=curlyBracket;whiteSpace=wrap;html=1;rounded=1;flipH=1;labelPosition=right;verticalLabelPosition=middle;align=left;verticalAlign=middle;strokeWidth=3;" vertex="1" parent="1">
          <mxGeometry x="500" y="-260" width="20" height="260" as="geometry" />
        </mxCell>
        <mxCell id="dsHAmgILbhfdjyYHhmKQ-17" value="Mint an NFT" style="text;strokeColor=none;fillColor=none;html=1;fontSize=24;fontStyle=1;verticalAlign=middle;align=center;" vertex="1" parent="1">
          <mxGeometry x="600" y="-150" width="100" height="40" as="geometry" />
        </mxCell>
        <mxCell id="dsHAmgILbhfdjyYHhmKQ-18" value="Buyer" style="shape=umlActor;verticalLabelPosition=bottom;verticalAlign=top;html=1;outlineConnect=0;" vertex="1" parent="1">
          <mxGeometry x="13" y="350" width="30" height="60" as="geometry" />
        </mxCell>
        <mxCell id="dsHAmgILbhfdjyYHhmKQ-19" value="Send request to buy an NFT" style="text;html=1;strokeColor=none;fillColor=none;align=center;verticalAlign=middle;whiteSpace=wrap;rounded=0;" vertex="1" parent="1">
          <mxGeometry x="80" y="340" width="90" height="40" as="geometry" />
        </mxCell>
        <mxCell id="dsHAmgILbhfdjyYHhmKQ-20" value="" style="endArrow=classic;html=1;rounded=0;exitX=0.5;exitY=0.5;exitDx=0;exitDy=0;exitPerimeter=0;entryX=0;entryY=0.5;entryDx=0;entryDy=0;" edge="1" parent="1" source="dsHAmgILbhfdjyYHhmKQ-18" target="dsHAmgILbhfdjyYHhmKQ-22">
          <mxGeometry width="50" height="50" relative="1" as="geometry">
            <mxPoint x="90" y="430" as="sourcePoint" />
            <mxPoint x="240" y="380" as="targetPoint" />
            <Array as="points">
              <mxPoint x="200" y="380" />
            </Array>
          </mxGeometry>
        </mxCell>
        <mxCell id="dsHAmgILbhfdjyYHhmKQ-22" value="DAO gets request" style="text;html=1;strokeColor=none;fillColor=none;align=center;verticalAlign=middle;whiteSpace=wrap;rounded=0;" vertex="1" parent="1">
          <mxGeometry x="200" y="360" width="90" height="40" as="geometry" />
        </mxCell>
        <mxCell id="dsHAmgILbhfdjyYHhmKQ-23" value="" style="endArrow=classic;html=1;rounded=0;exitX=1;exitY=0.5;exitDx=0;exitDy=0;entryX=0;entryY=0.5;entryDx=0;entryDy=0;" edge="1" parent="1" source="dsHAmgILbhfdjyYHhmKQ-22" target="dsHAmgILbhfdjyYHhmKQ-25">
          <mxGeometry width="50" height="50" relative="1" as="geometry">
            <mxPoint x="380" y="490" as="sourcePoint" />
            <mxPoint x="470" y="380" as="targetPoint" />
          </mxGeometry>
        </mxCell>
        <mxCell id="dsHAmgILbhfdjyYHhmKQ-24" value="DAO prove that R-E is okay" style="text;html=1;strokeColor=none;fillColor=none;align=center;verticalAlign=middle;whiteSpace=wrap;rounded=0;" vertex="1" parent="1">
          <mxGeometry x="368.5" y="330" width="90" height="40" as="geometry" />
        </mxCell>
        <mxCell id="dsHAmgILbhfdjyYHhmKQ-25" value="&lt;b&gt;Seller&lt;/b&gt; gets &lt;b&gt;buyers&#39;&lt;/b&gt; request" style="text;html=1;strokeColor=none;fillColor=none;align=center;verticalAlign=middle;whiteSpace=wrap;rounded=0;" vertex="1" parent="1">
          <mxGeometry x="530" y="360" width="90" height="40" as="geometry" />
        </mxCell>
        <mxCell id="dsHAmgILbhfdjyYHhmKQ-27" value="R-E is validated when it is checked by more than 50% of DAO members" style="text;html=1;strokeColor=none;fillColor=none;align=center;verticalAlign=middle;whiteSpace=wrap;rounded=0;" vertex="1" parent="1">
          <mxGeometry x="270" y="390" width="260" height="30" as="geometry" />
        </mxCell>
        <mxCell id="dsHAmgILbhfdjyYHhmKQ-29" value="" style="endArrow=classic;html=1;rounded=0;exitX=0.5;exitY=1;exitDx=0;exitDy=0;" edge="1" parent="1" source="dsHAmgILbhfdjyYHhmKQ-25" target="dsHAmgILbhfdjyYHhmKQ-30">
          <mxGeometry width="50" height="50" relative="1" as="geometry">
            <mxPoint x="480" y="560" as="sourcePoint" />
            <mxPoint x="490" y="550" as="targetPoint" />
            <Array as="points">
              <mxPoint x="575" y="480" />
            </Array>
          </mxGeometry>
        </mxCell>
        <mxCell id="dsHAmgILbhfdjyYHhmKQ-30" value="is NFT can be sold(is it proved by seller?)" style="rhombus;whiteSpace=wrap;html=1;" vertex="1" parent="1">
          <mxGeometry x="230" y="430" width="260" height="100" as="geometry" />
        </mxCell>
        <mxCell id="dsHAmgILbhfdjyYHhmKQ-31" value="" style="endArrow=classic;html=1;rounded=0;exitX=0;exitY=0.5;exitDx=0;exitDy=0;entryX=0.5;entryY=0;entryDx=0;entryDy=0;" edge="1" parent="1" source="dsHAmgILbhfdjyYHhmKQ-30" target="dsHAmgILbhfdjyYHhmKQ-33">
          <mxGeometry width="50" height="50" relative="1" as="geometry">
            <mxPoint x="140" y="560" as="sourcePoint" />
            <mxPoint x="40" y="560" as="targetPoint" />
            <Array as="points">
              <mxPoint x="80" y="480" />
            </Array>
          </mxGeometry>
        </mxCell>
        <mxCell id="dsHAmgILbhfdjyYHhmKQ-32" value="Yes" style="text;html=1;strokeColor=none;fillColor=none;align=center;verticalAlign=middle;whiteSpace=wrap;rounded=0;" vertex="1" parent="1">
          <mxGeometry x="110" y="450" width="60" height="30" as="geometry" />
        </mxCell>
        <mxCell id="dsHAmgILbhfdjyYHhmKQ-33" value="Operation happens" style="swimlane;fontStyle=0;childLayout=stackLayout;horizontal=1;startSize=30;horizontalStack=0;resizeParent=1;resizeParentMax=0;resizeLast=0;collapsible=1;marginBottom=0;whiteSpace=wrap;html=1;" vertex="1" parent="1">
          <mxGeometry x="10" y="570" width="140" height="220" as="geometry" />
        </mxCell>
        <mxCell id="dsHAmgILbhfdjyYHhmKQ-34" value="item goes to buyer&#39;s addr" style="text;strokeColor=none;fillColor=none;align=left;verticalAlign=middle;spacingLeft=4;spacingRight=4;overflow=hidden;points=[[0,0.5],[1,0.5]];portConstraint=eastwest;rotatable=0;whiteSpace=wrap;html=1;" vertex="1" parent="dsHAmgILbhfdjyYHhmKQ-33">
          <mxGeometry y="30" width="140" height="50" as="geometry" />
        </mxCell>
        <mxCell id="dsHAmgILbhfdjyYHhmKQ-35" value="status changes(it is not on marketplace anymore)" style="text;strokeColor=none;fillColor=none;align=left;verticalAlign=middle;spacingLeft=4;spacingRight=4;overflow=hidden;points=[[0,0.5],[1,0.5]];portConstraint=eastwest;rotatable=0;whiteSpace=wrap;html=1;" vertex="1" parent="dsHAmgILbhfdjyYHhmKQ-33">
          <mxGeometry y="80" width="140" height="60" as="geometry" />
        </mxCell>
        <mxCell id="dsHAmgILbhfdjyYHhmKQ-36" value="seller gets money" style="text;strokeColor=none;fillColor=none;align=left;verticalAlign=middle;spacingLeft=4;spacingRight=4;overflow=hidden;points=[[0,0.5],[1,0.5]];portConstraint=eastwest;rotatable=0;whiteSpace=wrap;html=1;" vertex="1" parent="dsHAmgILbhfdjyYHhmKQ-33">
          <mxGeometry y="140" width="140" height="40" as="geometry" />
        </mxCell>
        <mxCell id="dsHAmgILbhfdjyYHhmKQ-37" value="Marketplace get a 5% of price" style="text;strokeColor=none;fillColor=none;align=left;verticalAlign=middle;spacingLeft=4;spacingRight=4;overflow=hidden;points=[[0,0.5],[1,0.5]];portConstraint=eastwest;rotatable=0;whiteSpace=wrap;html=1;" vertex="1" parent="dsHAmgILbhfdjyYHhmKQ-33">
          <mxGeometry y="180" width="140" height="40" as="geometry" />
        </mxCell>
        <mxCell id="dsHAmgILbhfdjyYHhmKQ-38" value="" style="endArrow=classic;html=1;rounded=0;exitX=0.5;exitY=1;exitDx=0;exitDy=0;" edge="1" parent="1" source="dsHAmgILbhfdjyYHhmKQ-30">
          <mxGeometry width="50" height="50" relative="1" as="geometry">
            <mxPoint x="420" y="580" as="sourcePoint" />
            <mxPoint x="440" y="600" as="targetPoint" />
            <Array as="points">
              <mxPoint x="440" y="530" />
            </Array>
          </mxGeometry>
        </mxCell>
        <mxCell id="dsHAmgILbhfdjyYHhmKQ-39" value="item stay on markeplace" style="rounded=1;whiteSpace=wrap;html=1;" vertex="1" parent="1">
          <mxGeometry x="380" y="600" width="120" height="60" as="geometry" />
        </mxCell>
        <mxCell id="dsHAmgILbhfdjyYHhmKQ-40" value="But seller &amp;amp; buyer will pay fixed rate(10 FTK) in DAO for that" style="text;html=1;strokeColor=none;fillColor=none;align=center;verticalAlign=middle;whiteSpace=wrap;rounded=0;" vertex="1" parent="1">
          <mxGeometry x="380" y="670" width="120" height="80" as="geometry" />
        </mxCell>
        <mxCell id="dsHAmgILbhfdjyYHhmKQ-41" value="" style="endArrow=classic;html=1;rounded=0;exitX=0.25;exitY=0;exitDx=0;exitDy=0;" edge="1" parent="1" source="dsHAmgILbhfdjyYHhmKQ-22">
          <mxGeometry width="50" height="50" relative="1" as="geometry">
            <mxPoint x="320" y="300" as="sourcePoint" />
            <mxPoint x="223" y="160" as="targetPoint" />
          </mxGeometry>
        </mxCell>
        <mxCell id="dsHAmgILbhfdjyYHhmKQ-42" value="DAO prove that R-E is NOT okay" style="text;html=1;strokeColor=none;fillColor=none;align=center;verticalAlign=middle;whiteSpace=wrap;rounded=0;" vertex="1" parent="1">
          <mxGeometry x="127.5" y="210" width="90" height="70" as="geometry" />
        </mxCell>
        <mxCell id="dsHAmgILbhfdjyYHhmKQ-43" value="item stay on markeplace" style="rounded=1;whiteSpace=wrap;html=1;" vertex="1" parent="1">
          <mxGeometry x="170" y="100" width="120" height="60" as="geometry" />
        </mxCell>
        <mxCell id="dsHAmgILbhfdjyYHhmKQ-44" value="But seller &amp;amp; buyer will pay fixed rate(10 FTK) in DAO for that" style="text;html=1;strokeColor=none;fillColor=none;align=center;verticalAlign=middle;whiteSpace=wrap;rounded=0;" vertex="1" parent="1">
          <mxGeometry x="170" y="20" width="120" height="80" as="geometry" />
        </mxCell>
        <mxCell id="dsHAmgILbhfdjyYHhmKQ-45" value="" style="shape=curlyBracket;whiteSpace=wrap;html=1;rounded=1;flipH=1;labelPosition=right;verticalLabelPosition=middle;align=left;verticalAlign=middle;strokeWidth=3;" vertex="1" parent="1">
          <mxGeometry x="660" y="20" width="20" height="800" as="geometry" />
        </mxCell>
        <mxCell id="dsHAmgILbhfdjyYHhmKQ-46" style="edgeStyle=orthogonalEdgeStyle;rounded=0;orthogonalLoop=1;jettySize=auto;html=1;exitX=1;exitY=0.5;exitDx=0;exitDy=0;entryX=0.9;entryY=0.75;entryDx=0;entryDy=0;entryPerimeter=0;" edge="1" parent="1" source="dsHAmgILbhfdjyYHhmKQ-17" target="dsHAmgILbhfdjyYHhmKQ-17">
          <mxGeometry relative="1" as="geometry" />
        </mxCell>
        <mxCell id="dsHAmgILbhfdjyYHhmKQ-47" value="Sell NFT" style="text;strokeColor=none;fillColor=none;html=1;fontSize=24;fontStyle=1;verticalAlign=middle;align=center;" vertex="1" parent="1">
          <mxGeometry x="770" y="400" width="100" height="40" as="geometry" />
        </mxCell>
        <mxCell id="dsHAmgILbhfdjyYHhmKQ-48" value="&lt;b&gt;&lt;font style=&quot;font-size: 18px;&quot;&gt;Prerequesties for buyer&lt;/font&gt;&lt;/b&gt;" style="swimlane;fontStyle=0;childLayout=stackLayout;horizontal=1;startSize=50;horizontalStack=0;resizeParent=1;resizeParentMax=0;resizeLast=0;collapsible=1;marginBottom=0;whiteSpace=wrap;html=1;" vertex="1" parent="1">
          <mxGeometry x="760" y="260" width="160" height="110" as="geometry" />
        </mxCell>
        <mxCell id="dsHAmgILbhfdjyYHhmKQ-49" value="Have &amp;gt;= price of ETH in $" style="text;strokeColor=none;fillColor=none;align=left;verticalAlign=middle;spacingLeft=4;spacingRight=4;overflow=hidden;points=[[0,0.5],[1,0.5]];portConstraint=eastwest;rotatable=0;whiteSpace=wrap;html=1;" vertex="1" parent="dsHAmgILbhfdjyYHhmKQ-48">
          <mxGeometry y="50" width="160" height="60" as="geometry" />
        </mxCell>
      </root>
    </mxGraphModel>
  </diagram>
</mxfile>
